{"title":"Tool - Lateralus [24-bit 96kHz HDCD flac] MC Lurken Mix","uid":9194832,"size":1559038466,"categoryP":"audio","categoryS":"flac","magnet":"?xt=urn:btih:b80d9e20e37579632b483a2def17e6c97319e3d8&amp;dn=Tool+-+Lateralus+%5B24-bit+96kHz+HDCD+flac%5D+MC+Lurken+Mix&amp;tr=udp%3A%2F%2Ftracker.openbittorrent.com%3A80&amp;tr=udp%3A%2F%2Fopen.demonii.com%3A1337&amp;tr=udp%3A%2F%2Ftracker.coppersurfer.tk%3A6969&amp;tr=udp%3A%2F%2Fexodus.desync.com%3A6969","seeders":3,"leechers":0,"uploader":"beavis39","files":-1,"time":1384463905,"description":"\nTool - Lateralus [24-bit 96kHz HDCD flac] MC Lurken Mix\n\n\n\n**MC Lurken Mix featuring custom Izotope Ozone 5 VST (EQ, Dynamics, Imaging, Dither) and 64-bit/384kHz processing. Presented in high resolution 24-bit/96kHz**\n\n\n\nA couple months ago I ran across this vinyl rip of Lateralus (http://thepiratebay.se/torrent/8261839/TOOL_Lateralus_%28LINN_LP12_vinyl%29_FLAC) posted on a vinyl rip site. In a topic of this rip there was a claim that this was the best version out there. My remaster of Lateralus (http://thepiratebay.se/torrent/8085431/Tool_-_Lateralus_-_Custom_Remaster_by_MC_Lurken_24-bit_96kHz_fla) was also brought into the conversation with some people claiming they liked mine better. Knowing I could do better after some recent improvements I have decided to do another version. Lateralus is quickly becoming one of my favorite albums and I hope you all enjoy this new version as much as I do.\n\n\n\n\n1 - The Grudge\n2 - Eon Blue Apocalypse\n3 - The Patient\n4 - Mantra\n5 - Schism\n6 - Parabol\n7 - Parabola\n8 - Ticks &amp; Leeches\n9 - Lateralus\n10 - Disposition\n11 - Reflection\n12 - Triad\n13 - Faaip de Oiad\n\n\n\n\nfoobar2000 1.2.9 / Dynamic Range Meter 1.1.1\nlog date: 2013-11-13 07:15:21\n\n--------------------------------------------------------------------------------\nAnalyzed: Tool / Lateralus\n--------------------------------------------------------------------------------\n\nDR Peak RMS Duration Track\n--------------------------------------------------------------------------------\nDR9 -0.34 dB -11.66 dB 8:36 01-01 - The Grudge\nDR17 -8.06 dB -30.21 dB 1:05 02-02 - Eon Blue Apocalypse\nDR10 -0.32 dB -13.19 dB 7:14 03-03 - The Patient\nDR11 -9.20 dB -23.38 dB 1:13 04-04 - Mantra\nDR9 -0.06 dB -12.40 dB 6:48 05-05 - Schism\nDR9 -2.81 dB -22.29 dB 3:04 06-06 - Parabol\nDR10 -0.07 dB -11.45 dB 6:04 07-07 - Parabola\nDR10 -0.20 dB -12.41 dB 8:10 08-08 - Ticks &amp; Leeches\nDR9 -0.15 dB -11.71 dB 9:24 09-09 - Lateralus\nDR12 -3.10 dB -19.24 dB 4:46 10-10 - Disposition\nDR10 -0.40 dB -12.81 dB 11:08 11-11 - Reflection\nDR10 -0.15 dB -13.19 dB 8:47 12-12 - Triad\nDR11 -0.62 dB -15.26 dB 2:39 13-13 - Faaip de Oiad\n--------------------------------------------------------------------------------\n\nNumber of tracks: 13\nOfficial DR value: DR10\n\nSamplerate: 96000 Hz\nChannels: 2\nBits per sample: 24\nBitrate: 4608 kbps\nCodec: PCM\n\n\n\nenjoy the music :)\n\n\n\n","torrent":{"xt":"urn:btih:b80d9e20e37579632b483a2def17e6c97319e3d8","amp;dn":"Tool+-+Lateralus+%5B24-bit+96kHz+HDCD+flac%5D+MC+Lurken+Mix","amp;tr":["udp%3A%2F%2Ftracker.openbittorrent.com%3A80","udp%3A%2F%2Fopen.demonii.com%3A1337","udp%3A%2F%2Ftracker.coppersurfer.tk%3A6969","udp%3A%2F%2Fexodus.desync.com%3A6969"],"infoHash":"b80d9e20e37579632b483a2def17e6c97319e3d8","infoHashBuffer":{"type":"Buffer","data":[184,13,158,32,227,117,121,99,43,72,58,45,239,23,230,201,115,25,227,216]},"announce":[],"urlList":[]}}